<svg width="66" height="66" viewBox="0 0 66 66" fill="none" xmlns="http://www.w3.org/2000/svg">
<path d="M33 0C26.4732 0 20.093 1.93542 14.6662 5.5615C9.23937 9.18759 5.00968 14.3415 2.51199 20.3714C0.0142983 26.4014 -0.639212 33.0366 0.6341 39.438C1.90741 45.8393 5.05036 51.7194 9.66549 56.3345C14.2806 60.9496 20.1607 64.0926 26.562 65.3659C32.9634 66.6392 39.5986 65.9857 45.6286 63.488C51.6585 60.9903 56.8124 56.7606 60.4385 51.3338C64.0646 45.907 66 39.5268 66 33C66 24.2479 62.5232 15.8542 56.3345 9.66547C50.1458 3.47677 41.7522 0 33 0V0ZM33 11.7857C35.0979 11.7857 37.1487 12.4078 38.893 13.5733C40.6374 14.7389 41.9969 16.3955 42.7997 18.3337C43.6026 20.2719 43.8126 22.4046 43.4033 24.4622C42.9941 26.5198 41.9838 28.4098 40.5004 29.8932C39.017 31.3767 37.1269 32.3869 35.0694 32.7962C33.0118 33.2055 30.879 32.9954 28.9408 32.1926C27.0026 31.3897 25.346 30.0302 24.1805 28.2859C23.015 26.5415 22.3929 24.4907 22.3929 22.3929C22.3898 20.999 22.662 19.6183 23.194 18.33C23.7259 17.0417 24.5071 15.8711 25.4927 14.8855C26.4783 13.9 27.6488 13.1188 28.9372 12.5868C30.2255 12.0548 31.6062 11.7826 33 11.7857V11.7857ZM51.8571 54.0257C46.688 58.6983 39.9681 61.2854 33 61.2854C26.0319 61.2854 19.312 58.6983 14.1429 54.0257V52.6586C14.0536 49.4312 15.2413 46.2989 17.4481 43.9421C19.6548 41.5853 22.7023 40.1944 25.9286 40.0714H40.0714C43.2831 40.2003 46.3162 41.5833 48.5197 43.9234C50.7232 46.2635 51.9214 49.3742 51.8571 52.5878V54.0257V54.0257Z" fill="#EB5674"/>
</svg>
