<svg width="168" height="50" viewBox="0 0 168 50" fill="none" xmlns="http://www.w3.org/2000/svg">
<g filter="url(#filter0_d)">
<rect x="4" y="1" width="158.436" height="40.2015" rx="6" fill="#9CBFDF"/>
</g>
<path d="M38.8973 14.49V23.508C38.8973 24.624 38.5553 25.506 37.8713 26.154C37.1993 26.802 36.3113 27.126 35.2073 27.126C34.1033 27.126 33.2093 26.802 32.5253 26.154C31.8533 25.506 31.5173 24.624 31.5173 23.508H33.5873C33.5993 24.06 33.7373 24.498 34.0013 24.822C34.2773 25.146 34.6793 25.308 35.2073 25.308C35.7353 25.308 36.1373 25.146 36.4133 24.822C36.6893 24.486 36.8273 24.048 36.8273 23.508V14.49H38.8973ZM46.5374 27.162C45.6014 27.162 44.7554 26.952 43.9994 26.532C43.2434 26.1 42.6494 25.5 42.2174 24.732C41.7854 23.952 41.5694 23.052 41.5694 22.032C41.5694 21.024 41.7914 20.13 42.2354 19.35C42.6794 18.57 43.2854 17.97 44.0534 17.55C44.8214 17.13 45.6794 16.92 46.6274 16.92C47.5754 16.92 48.4334 17.13 49.2014 17.55C49.9694 17.97 50.5754 18.57 51.0194 19.35C51.4634 20.13 51.6854 21.024 51.6854 22.032C51.6854 23.04 51.4574 23.934 51.0014 24.714C50.5454 25.494 49.9214 26.1 49.1294 26.532C48.3494 26.952 47.4854 27.162 46.5374 27.162ZM46.5374 25.38C47.0654 25.38 47.5574 25.254 48.0134 25.002C48.4814 24.75 48.8594 24.372 49.1474 23.868C49.4354 23.364 49.5794 22.752 49.5794 22.032C49.5794 21.312 49.4414 20.706 49.1654 20.214C48.8894 19.71 48.5234 19.332 48.0674 19.08C47.6114 18.828 47.1194 18.702 46.5914 18.702C46.0634 18.702 45.5714 18.828 45.1154 19.08C44.6714 19.332 44.3174 19.71 44.0534 20.214C43.7894 20.706 43.6574 21.312 43.6574 22.032C43.6574 23.1 43.9274 23.928 44.4674 24.516C45.0194 25.092 45.7094 25.38 46.5374 25.38ZM54.758 15.768C54.386 15.768 54.074 15.642 53.822 15.39C53.57 15.138 53.444 14.826 53.444 14.454C53.444 14.082 53.57 13.77 53.822 13.518C54.074 13.266 54.386 13.14 54.758 13.14C55.118 13.14 55.424 13.266 55.676 13.518C55.928 13.77 56.054 14.082 56.054 14.454C56.054 14.826 55.928 15.138 55.676 15.39C55.424 15.642 55.118 15.768 54.758 15.768ZM55.766 17.082V27H53.714V17.082H55.766ZM63.464 16.92C64.244 16.92 64.94 17.082 65.552 17.406C66.176 17.73 66.662 18.21 67.01 18.846C67.358 19.482 67.532 20.25 67.532 21.15V27H65.498V21.456C65.498 20.568 65.276 19.89 64.832 19.422C64.388 18.942 63.782 18.702 63.014 18.702C62.246 18.702 61.634 18.942 61.178 19.422C60.734 19.89 60.512 20.568 60.512 21.456V27H58.46V17.082H60.512V18.216C60.848 17.808 61.274 17.49 61.79 17.262C62.318 17.034 62.876 16.92 63.464 16.92ZM79.2395 21.798C79.2395 22.17 79.2155 22.506 79.1675 22.806H71.5895C71.6495 23.598 71.9435 24.234 72.4715 24.714C72.9995 25.194 73.6475 25.434 74.4155 25.434C75.5195 25.434 76.2995 24.972 76.7555 24.048H78.9695C78.6695 24.96 78.1235 25.71 77.3315 26.298C76.5515 26.874 75.5795 27.162 74.4155 27.162C73.4675 27.162 72.6155 26.952 71.8595 26.532C71.1155 26.1 70.5275 25.5 70.0955 24.732C69.6755 23.952 69.4655 23.052 69.4655 22.032C69.4655 21.012 69.6695 20.118 70.0775 19.35C70.4975 18.57 71.0795 17.97 71.8235 17.55C72.5795 17.13 73.4435 16.92 74.4155 16.92C75.3515 16.92 76.1855 17.124 76.9175 17.532C77.6495 17.94 78.2195 18.516 78.6275 19.26C79.0355 19.992 79.2395 20.838 79.2395 21.798ZM77.0975 21.15C77.0855 20.394 76.8155 19.788 76.2875 19.332C75.7595 18.876 75.1055 18.648 74.3255 18.648C73.6175 18.648 73.0115 18.876 72.5075 19.332C72.0035 19.776 71.7035 20.382 71.6075 21.15H77.0975ZM80.5749 21.996C80.5749 21 80.7789 20.118 81.1869 19.35C81.6069 18.582 82.1709 17.988 82.8789 17.568C83.5989 17.136 84.3969 16.92 85.2729 16.92C85.9209 16.92 86.5569 17.064 87.1809 17.352C87.8169 17.628 88.3209 18 88.6929 18.468V13.68H90.7629V27H88.6929V25.506C88.3569 25.986 87.8889 26.382 87.2889 26.694C86.7009 27.006 86.0229 27.162 85.2549 27.162C84.3909 27.162 83.5989 26.946 82.8789 26.514C82.1709 26.07 81.6069 25.458 81.1869 24.678C80.7789 23.886 80.5749 22.992 80.5749 21.996ZM88.6929 22.032C88.6929 21.348 88.5489 20.754 88.2609 20.25C87.9849 19.746 87.6189 19.362 87.1629 19.098C86.7069 18.834 86.2149 18.702 85.6869 18.702C85.1589 18.702 84.6669 18.834 84.2109 19.098C83.7549 19.35 83.3829 19.728 83.0949 20.232C82.8189 20.724 82.6809 21.312 82.6809 21.996C82.6809 22.68 82.8189 23.28 83.0949 23.796C83.3829 24.312 83.7549 24.708 84.2109 24.984C84.6789 25.248 85.1709 25.38 85.6869 25.38C86.2149 25.38 86.7069 25.248 87.1629 24.984C87.6189 24.72 87.9849 24.336 88.2609 23.832C88.5489 23.316 88.6929 22.716 88.6929 22.032ZM98.9979 24.21C100.15 23.214 101.056 22.398 101.716 21.762C102.388 21.114 102.946 20.442 103.39 19.746C103.834 19.05 104.056 18.354 104.056 17.658C104.056 16.938 103.882 16.374 103.534 15.966C103.198 15.558 102.664 15.354 101.932 15.354C101.224 15.354 100.672 15.582 100.276 16.038C99.8919 16.482 99.6879 17.082 99.6639 17.838H97.6839C97.7199 16.47 98.1279 15.426 98.9079 14.706C99.6999 13.974 100.702 13.608 101.914 13.608C103.222 13.608 104.242 13.968 104.974 14.688C105.718 15.408 106.09 16.368 106.09 17.568C106.09 18.432 105.868 19.266 105.424 20.07C104.992 20.862 104.47 21.576 103.858 22.212C103.258 22.836 102.49 23.562 101.554 24.39L100.744 25.11H106.45V26.82H97.7019V25.326L98.9979 24.21ZM108.253 20.268C108.253 18.192 108.601 16.572 109.297 15.408C110.005 14.232 111.217 13.644 112.933 13.644C114.649 13.644 115.855 14.232 116.551 15.408C117.259 16.572 117.613 18.192 117.613 20.268C117.613 22.368 117.259 24.012 116.551 25.2C115.855 26.376 114.649 26.964 112.933 26.964C111.217 26.964 110.005 26.376 109.297 25.2C108.601 24.012 108.253 22.368 108.253 20.268ZM115.597 20.268C115.597 19.296 115.531 18.474 115.399 17.802C115.279 17.13 115.027 16.584 114.643 16.164C114.259 15.732 113.689 15.516 112.933 15.516C112.177 15.516 111.607 15.732 111.223 16.164C110.839 16.584 110.581 17.13 110.449 17.802C110.329 18.474 110.269 19.296 110.269 20.268C110.269 21.276 110.329 22.122 110.449 22.806C110.569 23.49 110.821 24.042 111.205 24.462C111.601 24.882 112.177 25.092 112.933 25.092C113.689 25.092 114.259 24.882 114.643 24.462C115.039 24.042 115.297 23.49 115.417 22.806C115.537 22.122 115.597 21.276 115.597 20.268ZM120.918 24.21C122.07 23.214 122.976 22.398 123.636 21.762C124.308 21.114 124.866 20.442 125.31 19.746C125.754 19.05 125.976 18.354 125.976 17.658C125.976 16.938 125.802 16.374 125.454 15.966C125.118 15.558 124.584 15.354 123.852 15.354C123.144 15.354 122.592 15.582 122.196 16.038C121.812 16.482 121.608 17.082 121.584 17.838H119.604C119.64 16.47 120.048 15.426 120.828 14.706C121.62 13.974 122.622 13.608 123.834 13.608C125.142 13.608 126.162 13.968 126.894 14.688C127.638 15.408 128.01 16.368 128.01 17.568C128.01 18.432 127.788 19.266 127.344 20.07C126.912 20.862 126.39 21.576 125.778 22.212C125.178 22.836 124.41 23.562 123.474 24.39L122.664 25.11H128.37V26.82H119.622V25.326L120.918 24.21ZM130.172 20.268C130.172 18.192 130.52 16.572 131.216 15.408C131.924 14.232 133.136 13.644 134.852 13.644C136.568 13.644 137.774 14.232 138.47 15.408C139.178 16.572 139.532 18.192 139.532 20.268C139.532 22.368 139.178 24.012 138.47 25.2C137.774 26.376 136.568 26.964 134.852 26.964C133.136 26.964 131.924 26.376 131.216 25.2C130.52 24.012 130.172 22.368 130.172 20.268ZM137.516 20.268C137.516 19.296 137.45 18.474 137.318 17.802C137.198 17.13 136.946 16.584 136.562 16.164C136.178 15.732 135.608 15.516 134.852 15.516C134.096 15.516 133.526 15.732 133.142 16.164C132.758 16.584 132.5 17.13 132.368 17.802C132.248 18.474 132.188 19.296 132.188 20.268C132.188 21.276 132.248 22.122 132.368 22.806C132.488 23.49 132.74 24.042 133.124 24.462C133.52 24.882 134.096 25.092 134.852 25.092C135.608 25.092 136.178 24.882 136.562 24.462C136.958 24.042 137.216 23.49 137.336 22.806C137.456 22.122 137.516 21.276 137.516 20.268Z" fill="white"/>
<path d="M7.21 13.89L6 23L11 20L16 23L14.79 13.88" stroke="#0E6795" stroke-width="2" stroke-linecap="round" stroke-linejoin="round"/>
<path d="M11 15C14.866 15 18 11.866 18 8C18 4.13401 14.866 1 11 1C7.13401 1 4 4.13401 4 8C4 11.866 7.13401 15 11 15Z" stroke="#0E6795" stroke-width="2" stroke-linecap="round" stroke-linejoin="round"/>
<defs>
<filter id="filter0_d" x="0" y="1" width="166.436" height="48.2015" filterUnits="userSpaceOnUse" color-interpolation-filters="sRGB">
<feFlood flood-opacity="0" result="BackgroundImageFix"/>
<feColorMatrix in="SourceAlpha" type="matrix" values="0 0 0 0 0 0 0 0 0 0 0 0 0 0 0 0 0 0 127 0"/>
<feOffset dy="4"/>
<feGaussianBlur stdDeviation="2"/>
<feColorMatrix type="matrix" values="0 0 0 0 0 0 0 0 0 0 0 0 0 0 0 0 0 0 0.25 0"/>
<feBlend mode="normal" in2="BackgroundImageFix" result="effect1_dropShadow"/>
<feBlend mode="normal" in="SourceGraphic" in2="effect1_dropShadow" result="shape"/>
</filter>
</defs>
</svg>
