<svg width="24" height="22" viewBox="0 0 24 22" fill="none" xmlns="http://www.w3.org/2000/svg">
<path d="M9 11C8.20435 11 7.44129 10.6839 6.87868 10.1213C6.31607 9.55871 6 8.79565 6 8C6 7.20435 6.31607 6.44129 6.87868 5.87868C7.44129 5.31607 8.20435 5 9 5C9.79565 5 10.5587 5.31607 11.1213 5.87868C11.6839 6.44129 12 7.20435 12 8C12 8.79565 11.6839 9.55871 11.1213 10.1213C10.5587 10.6839 9.79565 11 9 11Z" stroke="black" stroke-width="2" stroke-linecap="round"/>
<path d="M3 19V18C3 16.9391 3.42143 15.9217 4.17157 15.1716C4.92172 14.4214 5.93913 14 7 14H11C12.0609 14 13.0783 14.4214 13.8284 15.1716C14.5786 15.9217 15 16.9391 15 18V19" stroke="black" stroke-width="2" stroke-linecap="round"/>
<path d="M18 1V7" stroke="black" stroke-width="2" stroke-linecap="round"/>
<path d="M15 4H21" stroke="black" stroke-width="2" stroke-linecap="round"/>
</svg>
